<svg xmlns="http://www.w3.org/2000/svg" style="display: none;">
  <symbol id="icon-logo" viewBox="0 0 28 28">
    <g clip-path="url(#clip0_4_550)">
      <path d="M14 28C21.732 28 28 21.732 28 14C28 6.26801 21.732 0 14 0C6.26801 0 0 6.26801 0 14C0 21.732 6.26801 28 14 28Z" fill="#FFDA44" />
      <path d="M0 14C0 6.26806 6.26806 0 14 0C21.7319 0 28 6.26806 28 14" fill="#338AF3" />
    </g>
    <defs>
      <clipPath id="clip0_4_550">
        <rect width="28" height="28" fill="white" />
      </clipPath>
    </defs>
  </symbol>

  <symbol id="icon-login" viewBox="0 0 20 20" fill="none">
    <path d="M12.5 2.5H13.5C14.9001 2.5 15.6002 2.5 16.135 2.77248C16.6054 3.01217 16.9878 3.39462 17.2275 3.86502C17.5 4.3998 17.5 5.09987 17.5 6.5V13.5C17.5 14.9001 17.5 15.6002 17.2275 16.135C16.9878 16.6054 16.6054 16.9878 16.135 17.2275C15.6002 17.5 14.9001 17.5 13.5 17.5H12.5" stroke="currentColor" stroke-width="2" stroke-linecap="round" stroke-linejoin="round" />
    <path d="M8.33333 5.83325L12.5 9.99992M12.5 9.99992L8.33333 14.1666M12.5 9.99992L2.5 9.99992" stroke="currentColor" stroke-width="2" stroke-linecap="round" stroke-linejoin="round" />
  </symbol>

  <symbol id="icon-logout" viewBox="0 0 20 20" fill="none">
    <path d="M12.5 2.5H13.5C14.9001 2.5 15.6002 2.5 16.135 2.77248C16.6054 3.01217 16.9878 3.39462 17.2275 3.86502C17.5 4.3998 17.5 5.09987 17.5 6.5V13.5C17.5 14.9001 17.5 15.6002 17.2275 16.135C16.9878 16.6054 16.6054 16.9878 16.135 17.2275C15.6002 17.5 14.9001 17.5 13.5 17.5H12.5" stroke="currentColor" stroke-width="2" stroke-linecap="round" stroke-linejoin="round" />
    <path d="M6.66667 14.1666L2.5 9.99992M2.5 9.99992L6.66667 5.83325M2.5 9.99992L12.5 9.99992" stroke="currentColor" stroke-width="2" stroke-linecap="round" stroke-linejoin="round" />
  </symbol>

  <symbol id="icon-heart" viewBox="0 0 24 24">
    <path 
      d="M20.84 4.61a5.5 5.5 0 0 0-7.78 0L12 5.67l-1.06-1.06a5.501 5.501 0 1 0-7.78 7.78l1.06 1.06L12 21.23l7.78-7.78 1.06-1.06a5.5 5.5 0 0 0 0-7.78z" 
      stroke-width="2" 
      stroke-linecap="round" 
      stroke-linejoin="round" 
    />
  </symbol>


  <symbol id="icon-close" viewBox="0 0 32 32">
    <path d="M24 8L8 24" stroke="currentColor" stroke-width="2.5" stroke-linecap="round" stroke-linejoin="round" />
    <path d="M8 8L24 24" stroke="currentColor" stroke-width="2.5" stroke-linecap="round" stroke-linejoin="round" />
  </symbol>

  <symbol id="icon-eye" viewBox="0 0 20 20">
    <path d="M10.0002 16.6666C4.16683 16.6666 0.833496 9.99994 0.833496 9.99994C0.833496 9.99994 4.16683 3.33327 10.0002 3.33327C15.8335 3.33327 19.1668 9.99994 19.1668 9.99994C19.1668 9.99994 15.8335 16.6666 10.0002 16.6666Z" stroke="currentColor" stroke-width="2" stroke-linecap="round" stroke-linejoin="round" fill="none" />
    <path d="M10 12.5C11.3807 12.5 12.5 11.3807 12.5 10C12.5 8.61929 11.3807 7.5 10 7.5C8.61929 7.5 7.5 8.61929 7.5 10C7.5 11.3807 8.61929 12.5 10 12.5Z" stroke="currentColor" stroke-width="2" stroke-linecap="round" stroke-linejoin="round" fill="none" />
  </symbol>

  <symbol id="icon-eye-off" viewBox="0 0 20 20">
    <path d="M14.9502 14.9499C13.5257 16.0358 11.7911 16.6373 10.0002 16.6666C4.16683 16.6666 0.833496 9.99994 0.833496 9.99994C1.87007 8.06819 3.30778 6.38045 5.05016 5.04994M8.25016 3.53327C8.82377 3.39901 9.41105 3.33189 10.0002 3.33327C15.8335 3.33327 19.1668 9.99994 19.1668 9.99994C18.661 10.9463 18.0577 11.8372 17.3668 12.6583M11.7668 11.7666C11.538 12.0122 11.262 12.2092 10.9553 12.3459C10.6486 12.4825 10.3176 12.556 9.98191 12.5619C9.64623 12.5678 9.3128 12.5061 9.00151 12.3803C8.69021 12.2546 8.40743 12.0675 8.17004 11.8301C7.93264 11.5927 7.74549 11.3099 7.61975 10.9986C7.49402 10.6873 7.43227 10.3539 7.43819 10.0182C7.44411 9.68252 7.51759 9.35148 7.65423 9.04481C7.79087 8.73815 7.98787 8.46215 8.2335 8.23327" stroke="currentColor" stroke-width="2" stroke-linecap="round" stroke-linejoin="round" fill="none"/>
    <path d="M0.833496 0.833374L19.1668 19.1667" stroke="currentColor" stroke-width="2" stroke-linecap="round" stroke-linejoin="round" fill="none"/>
  </symbol>

  <symbol id="icon-book" viewBox="0 0 16 16">
    <path d="M14.6667 4.13333C14.6667 3.3866 14.6667 3.01323 14.5213 2.72801C14.3935 2.47713 14.1895 2.27316 13.9387 2.14532C13.6534 2 13.2801 2 12.5333 2H12.2667C10.7732 2 10.0265 2 9.45603 2.29065C8.95426 2.54631 8.54631 2.95426 8.29065 3.45603C8 4.02646 8 4.77319 8 6.26667V14L8.0667 13.8999C8.5298 13.2053 8.76135 12.858 9.06727 12.6065C9.33809 12.3839 9.65016 12.2169 9.9856 12.1151C10.3645 12 10.7819 12 11.6168 12H12.5333C13.2801 12 13.6534 12 13.9387 11.8547C14.1895 11.7268 14.3935 11.5229 14.5213 11.272C14.6667 10.9868 14.6667 10.6134 14.6667 9.86667V4.13333Z" stroke="currentColor" stroke-width="1.5" stroke-linecap="round" stroke-linejoin="round" fill="none" />
    <path d="M1.33331 4.13333C1.33331 3.3866 1.33331 3.01323 1.47864 2.72801C1.60647 2.47713 1.81044 2.27316 2.06133 2.14532C2.34654 2 2.71991 2 3.46665 2H3.73331C5.22679 2 5.97352 2 6.54395 2.29065C7.04572 2.54631 7.45367 2.95426 7.70933 3.45603C7.99998 4.02646 7.99998 4.77319 7.99998 6.26667V14L7.93328 13.8999C7.47018 13.2053 7.23863 12.858 6.93271 12.6065C6.66188 12.3839 6.34982 12.2169 6.01438 12.1151C5.63548 12 5.21805 12 4.3832 12H3.46665C2.71991 12 2.34654 12 2.06133 11.8547C1.81044 11.7268 1.60647 11.5229 1.47864 11.272C1.33331 10.9868 1.33331 10.6134 1.33331 9.86667V4.13333Z" stroke="currentColor" stroke-width="1.5" stroke-linecap="round" stroke-linejoin="round" fill="none" />
  </symbol>

  <symbol id="icon-star" viewBox="0 0 15 14">
    <path d="M8.88971 4.12573C9.04886 4.42725 9.33893 4.63786 9.67487 4.69604L13.4747 5.35229L10.7872 8.11987C10.5497 8.36444 10.4388 8.70526 10.4874 9.04272L11.0362 12.8601L7.57526 11.1589L7.45807 11.1091C7.21999 11.0245 6.95982 11.0245 6.72174 11.1091L6.60455 11.1589L3.14264 12.8601L3.69244 9.04272C3.74097 8.70526 3.63016 8.36444 3.39264 8.11987L0.704163 5.35229L4.50494 4.69604C4.84088 4.63786 5.13095 4.42725 5.2901 4.12573L7.0899 0.7146L8.88971 4.12573Z" fill="currentColor" stroke="currentColor" stroke-width="1.2" />
  </symbol>

  <symbol id="icon-divider" viewBox="0 0 1 16" fill="none">
    <path d="M0.5 0V16" stroke="currentColor" stroke-width="1" />
  </symbol>

  <symbol id="icon-chevron-down" viewBox="0 0 20 20" xmlns="http://www.w3.org/2000/svg">
  <path 
    d="M5 7.5L10 12.5L15 7.5" 
    stroke="currentColor" 
    stroke-width="2" 
    stroke-linecap="round" 
    stroke-linejoin="round"
    fill="none" 
  />
</symbol>

</svg>
